<svg xmlns="http://www.w3.org/2000/svg" width="1179" height="842" viewBox="0 0 1179 842" version="1.1">
	<path d="M 603.314 57.857 C 586.011 63.837, 574.977 81.604, 573.417 106 C 572.601 118.769, 572.624 118.716, 566.475 121.731 C 562.878 123.496, 561 125.031, 561 126.208 C 561 127.712, 561.878 128, 566.455 128 L 571.909 128 572.600 131.680 C 572.980 133.705, 573.048 147.435, 572.752 162.193 C 572.133 193.078, 572.073 193.312, 564.497 194.448 C 560.545 195.041, 559.924 195.443, 560.190 197.241 C 560.493 199.298, 560.942 199.342, 581.500 199.374 C 601.626 199.405, 602.500 199.326, 602.500 197.467 C 602.500 195.876, 601.512 195.389, 597 194.759 C 587.638 193.450, 587.929 194.632, 588.236 159.122 L 588.500 128.500 600.438 128.217 C 607.140 128.058, 612.951 127.456, 613.688 126.844 C 614.409 126.245, 615 124.460, 615 122.878 L 615 120 601.378 120 L 587.756 120 588.258 101.750 C 588.832 80.909, 589.998 75.699, 595.536 69.229 C 602.440 61.164, 610.335 61.264, 620.502 69.545 C 626.528 74.453, 629.509 75.038, 632.811 71.961 C 637.263 67.814, 634.810 61.180, 627.617 57.914 C 622.169 55.440, 610.390 55.412, 603.314 57.857 M 864.440 57.325 C 863.373 57.939, 858.450 59.860, 853.500 61.594 C 843.588 65.066, 842.019 66.924, 846.877 69.436 C 852.817 72.508, 853 73.339, 853 97.242 L 853 119.038 850.250 118.310 C 845.315 117.004, 828.744 117.622, 822.105 119.359 C 799.411 125.299, 785.650 145.792, 788.850 168.884 C 791.272 186.363, 802.261 197.972, 819.371 201.124 C 827.983 202.711, 836.688 201.190, 846.092 196.454 C 849.864 194.554, 853.245 193, 853.605 193 C 853.965 193, 854.035 194.994, 853.761 197.431 C 853.486 199.868, 853.688 202.288, 854.209 202.809 C 854.805 203.405, 857.813 203.086, 862.328 201.948 C 866.273 200.954, 872.305 199.602, 875.733 198.944 C 882.366 197.670, 884.417 196.252, 883.413 193.634 C 882.958 192.448, 882.087 192.191, 880.164 192.674 C 875.552 193.831, 871.763 193.396, 870.416 191.555 C 868.107 188.396, 867.867 180.513, 868.186 118.261 C 868.404 75.757, 868.176 56.897, 867.440 56.615 C 866.856 56.391, 865.506 56.711, 864.440 57.325 M 368.880 63.959 C 355.045 66.878, 344.244 72.753, 333.941 82.964 C 326.996 89.847, 324.523 93.146, 321.169 100 C 315.031 112.545, 313.549 119.239, 313.643 134 C 313.711 144.632, 314.113 147.695, 316.336 154.500 C 326.457 185.487, 354.591 203.508, 390 201.686 C 408.916 200.713, 422.552 195.216, 434.727 183.653 C 450.491 168.682, 458.015 149.616, 456.675 128.037 C 455.946 116.297, 454.002 108.912, 448.867 98.368 C 442.218 84.718, 429.842 73.046, 416.095 67.460 C 402.791 62.055, 384.380 60.689, 368.880 63.959 M 372.253 69.057 C 364.789 70.529, 354.837 75.993, 349.308 81.654 C 328.992 102.456, 328.857 150.349, 349.040 177.191 C 358.388 189.624, 371.576 196.010, 387.855 195.988 C 405.909 195.963, 417.506 189.979, 426.973 175.802 C 439.448 157.121, 440.371 123.051, 429.086 97.866 C 426.246 91.530, 419.122 82.053, 414.403 78.336 C 403.210 69.519, 387.474 66.054, 372.253 69.057 M 741.500 117.005 C 739.850 118.100, 735.462 120.193, 731.750 121.656 C 728.038 123.119, 725 124.837, 725 125.474 C 725 126.111, 726.575 128.026, 728.500 129.731 L 732 132.829 732 161.224 C 732 182.371, 731.681 190.049, 730.750 191.307 C 730.063 192.237, 727.475 193.580, 725 194.293 C 721.792 195.216, 720.500 196.110, 720.500 197.406 C 720.500 199.102, 721.899 199.229, 741.500 199.309 C 762.076 199.392, 762.506 199.351, 762.806 197.301 C 763.078 195.439, 762.454 195.133, 757.130 194.515 C 747.383 193.384, 747.553 193.869, 747.191 166.147 C 747.022 153.141, 747.152 141.051, 747.481 139.279 C 747.810 137.508, 749.227 134.696, 750.629 133.029 C 753.748 129.323, 759.012 128.945, 765 132 C 770.534 134.823, 773.353 134.557, 776.411 130.923 C 779.509 127.241, 779.695 124.153, 777.023 120.756 C 772.972 115.607, 765.292 116.845, 754.504 124.387 C 750.874 126.924, 747.721 129, 747.498 129 C 747.274 129, 746.958 125.998, 746.796 122.330 C 746.633 118.661, 746.050 115.514, 745.500 115.337 C 744.950 115.159, 743.150 115.910, 741.500 117.005 M 654.121 118.127 C 640.946 120.316, 629.719 129.039, 623.685 141.777 C 620.655 148.172, 620.500 149.086, 620.500 160.500 C 620.500 171.852, 620.667 172.851, 623.597 179 C 625.301 182.575, 628.605 187.455, 630.939 189.845 C 639.582 198.695, 655.240 203.321, 668.807 201.033 C 683.480 198.558, 693.904 191.034, 700.101 178.447 C 703.395 171.757, 703.500 171.172, 703.500 159.522 C 703.500 148.160, 703.331 147.143, 700.413 141 C 694.593 128.742, 683.114 120.224, 669.387 117.976 C 662.695 116.880, 661.564 116.891, 654.121 118.127 M 465.284 120.702 C 464.528 122.673, 465.706 123.658, 470.389 124.969 C 472.831 125.653, 475.945 127.402, 477.308 128.856 C 481.835 133.682, 500 159.167, 500 160.690 C 500 162.366, 491.908 173.760, 482.920 184.738 C 477.512 191.343, 476.467 192.130, 470.964 193.738 C 466.018 195.183, 464.986 195.852, 465.217 197.458 C 465.485 199.310, 466.358 199.413, 481.500 199.365 C 496.363 199.318, 497.500 199.184, 497.500 197.471 C 497.500 196.200, 496.412 195.350, 494 194.735 C 489.078 193.481, 488.604 192.687, 490.496 188.865 C 492.605 184.607, 504.270 166.997, 504.973 167.009 C 506.394 167.032, 520.455 188.692, 520.476 190.889 C 520.497 193.013, 519.842 193.539, 516 194.486 C 512.647 195.313, 511.500 196.077, 511.500 197.484 C 511.500 199.270, 512.553 199.372, 531 199.376 C 549.979 199.380, 550.508 199.325, 550.805 197.303 C 551.061 195.557, 550.301 195.032, 546.045 194.011 C 539.587 192.462, 536.788 189.222, 515.099 158.199 L 512.791 154.898 520.146 145.202 C 531.202 130.624, 534.702 127.454, 542.162 125.257 C 547.066 123.813, 548.500 122.961, 548.500 121.491 C 548.500 119.703, 547.564 119.595, 532.500 119.634 C 517.438 119.673, 516.483 119.790, 516.209 121.620 C 515.993 123.064, 516.763 123.812, 519.209 124.532 C 524.138 125.982, 523.496 128.992, 515.970 139.731 C 512.411 144.808, 509.213 148.971, 508.863 148.981 C 507.729 149.015, 493.894 127.819, 494.279 126.641 C 494.484 126.013, 496.325 125.078, 498.371 124.563 C 501.251 123.837, 502.023 123.185, 501.795 121.676 C 501.516 119.831, 500.534 119.720, 483.622 119.613 C 470.534 119.530, 465.621 119.822, 465.284 120.702 M 653.685 124.017 C 642.488 127.378, 636.125 141.824, 637.276 161.275 C 638.183 176.611, 642.668 186.726, 651.172 192.619 C 654.869 195.181, 656.177 195.500, 662.988 195.500 C 669.653 195.500, 671.181 195.146, 674.768 192.772 C 682.407 187.717, 687 176.103, 687 161.839 C 687 148.160, 683.882 138.202, 677.320 130.924 C 671.051 123.972, 662.329 121.422, 653.685 124.017 M 826.500 123.935 C 815.705 126.563, 808.174 135.988, 805.963 149.637 C 804.400 159.285, 805.493 167.498, 809.435 175.724 C 814.751 186.816, 822.899 192.120, 834.856 192.272 C 842.343 192.368, 850.075 189.597, 851.914 186.160 C 852.609 184.862, 853 175.447, 853 160.016 C 853 133.625, 852.798 132.532, 847.005 127.658 C 842.045 123.484, 834.201 122.060, 826.500 123.935 M 466.055 254.657 C 463.842 257.471, 463.922 258.696, 466.755 265.350 C 468.359 269.118, 468.336 269.302, 465.697 273.997 C 462.315 280.013, 461.959 288.781, 464.901 293.605 C 468.760 299.934, 479.455 303.670, 491.119 302.763 L 497.500 302.267 527.398 332.003 C 557.186 361.629, 557.290 361.748, 555.648 364.092 C 554.742 365.386, 554 366.973, 554 367.619 C 554 368.265, 557.407 372.097, 561.571 376.134 L 569.141 383.475 568.501 388.990 C 568.149 392.023, 568.301 395.629, 568.838 397.002 C 569.375 398.376, 573.100 402.824, 577.116 406.887 L 584.418 414.273 581.072 420.387 C 576.909 427.992, 569.194 439, 568.026 439 C 567.546 439, 565.829 440.114, 564.210 441.476 C 561.288 443.935, 561.255 443.939, 559.479 441.976 C 558.495 440.889, 556.691 440, 555.470 440 C 553.384 440, 553.224 439.482, 552.797 431.348 C 552.261 421.143, 550.662 419, 543.580 419 C 535.531 419, 534.367 422.018, 533.097 446.193 C 532.265 462.036, 533.048 487.651, 534.433 489.891 C 534.827 490.530, 538.048 491, 542.024 491 C 550.278 491, 550.455 490.788, 551.463 479.750 L 552.171 472 555.172 472 C 557.589 472, 558.394 471.416, 559.306 469 C 560.398 466.107, 560.662 466, 566.691 466 C 572.904 466, 572.948 466.020, 573.785 469.248 C 574.676 472.687, 576.520 473.588, 580.579 472.570 C 582.565 472.071, 583 471.331, 583 468.452 L 583 464.942 596.250 465.221 L 609.500 465.500 609.838 468.500 C 610.304 472.622, 611.337 473.596, 616.679 474.941 C 620.943 476.014, 621.150 476.207, 619.373 477.451 C 616.059 479.772, 599.948 486.682, 589.078 490.445 C 568.617 497.527, 541.089 503.072, 517.061 504.950 L 504.621 505.922 500.964 501.961 C 497.715 498.441, 496.790 498, 492.669 498 C 488.982 498, 487.377 498.585, 484.837 500.854 L 481.643 503.708 475.571 501.824 C 471.345 500.513, 464.334 499.687, 452.500 499.108 C 430.554 498.034, 425.909 496.272, 421.881 487.500 C 416.784 476.400, 421.428 463.971, 437.250 446.367 C 461.499 419.389, 472.683 405.214, 484.223 386.830 C 493.190 372.545, 506 348.959, 506 346.732 C 506 344.347, 492.829 331.203, 481 321.785 C 461.077 305.921, 433.840 290.426, 415.500 284.521 C 394.256 277.681, 363.398 274.183, 359.411 278.163 C 357.157 280.414, 358.081 284.894, 362.705 294.137 C 367.712 304.145, 376.919 313.198, 387.875 318.884 C 402.675 326.566, 408 333.376, 408 344.619 C 408 353.061, 404.952 358.534, 392.722 372.055 C 370.931 396.144, 360.829 408.830, 351.314 424.053 C 335.706 449.024, 326 480.495, 326 506.131 C 326 513.193, 325.639 516.180, 324.750 516.469 C 323.621 516.836, 287.371 519.302, 242.500 522.064 C 222.513 523.294, 214.754 525.220, 207.599 530.727 C 202.099 534.960, 197.216 542.769, 196.785 548.016 L 196.500 551.500 591.940 551.751 C 868.467 551.927, 987.576 551.685, 988.032 550.948 C 989.322 548.861, 987.026 539.498, 984.273 535.617 C 982.748 533.467, 979.144 530.384, 976.265 528.766 C 971.608 526.149, 968.714 525.531, 950.027 523.162 L 929.023 520.500 926.574 516 C 919.022 502.124, 918.564 500.798, 918.604 492.930 C 918.648 484.517, 920.243 480.470, 930.002 464.009 C 938.359 449.915, 939.431 446.344, 939.468 432.484 C 939.499 420.797, 939.406 420.277, 936.080 413.517 C 929.680 400.506, 919.420 392.959, 904.622 390.375 C 888.030 387.479, 871.067 392.891, 859.973 404.622 C 852.576 412.443, 849.691 419.382, 849.187 430.558 C 848.485 446.128, 851.954 456.353, 863.196 471.841 C 869.692 480.790, 872.009 486.609, 871.984 493.909 C 871.966 499.415, 869.663 509.737, 868.106 511.294 C 867.286 512.114, 864.677 511.660, 858.245 509.575 C 847.187 505.992, 839.501 502.143, 819.500 490.174 C 782.968 468.314, 757.166 457.184, 730.763 451.899 L 719.026 449.550 662.763 393.025 C 631.818 361.936, 603.411 332.788, 599.635 328.251 C 589.018 315.493, 579.586 309.553, 568.024 308.345 C 561.613 307.675, 552.726 309.782, 548.901 312.879 C 545.306 315.790, 547.624 317.585, 555.978 318.361 C 570.157 319.679, 578.883 324.955, 583.969 335.286 C 586.903 341.246, 589.392 355, 587.537 355 C 587.123 355, 582.075 350.639, 576.319 345.309 C 566.024 335.776, 565.802 335.636, 562.768 336.782 C 558.925 338.232, 562.818 341.663, 511.180 291.314 C 489.004 269.691, 470.249 252, 469.503 252 C 468.756 252, 467.205 253.196, 466.055 254.657 M 613.190 373.900 L 608.880 374.500 630.190 395.514 C 641.910 407.072, 655.898 420.778, 661.274 425.971 L 671.047 435.415 674.274 432.149 L 677.500 428.884 666.469 418.192 C 641.191 393.691, 619.081 373.010, 618.317 373.150 C 617.868 373.233, 615.560 373.570, 613.190 373.900 M 588.939 429.750 C 579.208 440.274, 579.355 440.056, 581.250 441.118 C 582.439 441.785, 583 443.321, 583 445.912 L 583 449.725 588.573 450.380 C 591.638 450.740, 597.713 450.737, 602.073 450.374 C 609.784 449.730, 610 449.641, 610 447.100 C 610 441.630, 607.898 437.454, 602.290 431.788 C 598.968 428.431, 595.690 426, 594.484 426 C 593.341 426, 590.846 427.688, 588.939 429.750 M 683.661 441.832 L 680.948 444.664 683.046 447.332 C 685.232 450.110, 687.805 450.589, 693.950 449.360 L 697.149 448.720 692.362 443.860 C 689.729 441.187, 687.305 439, 686.975 439 C 686.644 439, 685.153 440.274, 683.661 441.832 M 543 609.379 C 539.975 610.642, 535.362 612.461, 532.750 613.420 C 527.092 615.499, 526.428 618.136, 530.970 620.485 C 532.604 621.329, 534.387 622.854, 534.932 623.873 C 536.187 626.218, 537.394 657.503, 536.484 664.116 L 535.802 669.078 526.151 668.443 C 502.916 666.914, 485.041 676.002, 476.848 693.511 C 472.703 702.369, 471.287 711.212, 472.697 719.443 C 475.047 733.162, 481.788 742.801, 492.837 748.240 C 498.996 751.273, 500.168 751.500, 509.635 751.500 C 519.658 751.500, 519.934 751.436, 527.987 747.250 C 532.483 744.913, 536.351 743, 536.581 743 C 536.812 743, 537 745.223, 537 747.941 C 537 750.659, 537.403 753.131, 537.895 753.435 C 538.665 753.911, 556.530 750.311, 564 748.175 C 565.562 747.728, 566.623 746.601, 566.827 745.171 C 567.146 742.944, 566.996 742.901, 561.177 743.559 C 550.807 744.733, 551.500 749.797, 551.500 672.794 C 551.500 614.959, 551.319 607.005, 550 607.041 C 549.175 607.064, 546.025 608.116, 543 609.379 M 1009 607.910 C 1008.175 608.392, 1003.900 610.028, 999.500 611.545 C 995.100 613.063, 990.825 614.948, 990 615.733 C 988.674 616.995, 988.773 617.354, 990.860 618.830 C 992.158 619.749, 994.296 621.492, 995.610 622.705 L 998 624.909 998 682.344 C 998 747.361, 998.511 743.368, 990 744.799 C 986.443 745.397, 985.500 745.969, 985.500 747.528 C 985.500 749.425, 986.260 749.500, 1005.500 749.500 C 1024.833 749.500, 1025.500 749.433, 1025.500 747.500 C 1025.500 745.900, 1024.643 745.386, 1021.214 744.928 C 1013.856 743.946, 1013.500 743.065, 1013.500 725.829 C 1013.500 709.365, 1013.963 708.021, 1019.181 709.331 C 1021.398 709.887, 1038.846 729.030, 1045.957 738.708 C 1048.785 742.558, 1047.698 744.705, 1042.676 745.192 C 1040.269 745.425, 1039.500 745.984, 1039.500 747.500 C 1039.500 749.435, 1040.167 749.500, 1060 749.500 C 1079.737 749.500, 1080.500 749.427, 1080.500 747.528 C 1080.500 745.991, 1079.571 745.397, 1076.297 744.838 C 1070.507 743.849, 1069.219 743.021, 1062.268 735.808 C 1055.274 728.549, 1037.797 708.145, 1035.268 704.286 L 1033.559 701.678 1044.827 690.905 C 1055.749 680.462, 1063.881 675, 1068.505 675 C 1071.349 675, 1074.386 672.658, 1073.804 670.913 C 1073.417 669.752, 1070.232 669.556, 1055.917 669.812 C 1046.337 669.984, 1037.687 670.360, 1036.693 670.648 C 1033.436 671.591, 1035.298 674.283, 1039.991 675.416 C 1042.794 676.093, 1044.600 677.122, 1044.796 678.155 C 1045.143 679.986, 1034.650 692.497, 1027.455 698.831 C 1022.661 703.051, 1018.487 704.607, 1014.963 703.488 C 1012.889 702.830, 1012.882 702.653, 1013.071 655.164 C 1013.270 604.954, 1013.308 605.394, 1009 607.910 M 69.284 617.702 C 68.546 619.627, 69.923 621, 72.591 621 C 75.908 621, 81.104 623.279, 83.226 625.664 C 84.710 627.333, 89.206 636.563, 107.983 676.500 C 111.381 683.725, 113.532 688.499, 130.968 727.500 C 136.623 740.150, 141.878 751.167, 142.644 751.983 C 143.648 753.051, 144.484 753.185, 145.633 752.460 C 146.510 751.907, 150.932 742.914, 155.460 732.477 C 166.143 707.853, 171.756 695.997, 172.723 696.013 C 173.518 696.027, 174.128 697.361, 188.733 731 C 193.390 741.725, 197.795 751.124, 198.522 751.887 C 200.837 754.314, 202.618 752.395, 205.992 743.838 C 213.008 726.045, 251.227 637.186, 254.278 631.573 C 258.093 624.555, 260.924 622.250, 267.002 621.213 C 270.553 620.606, 271.500 620.029, 271.500 618.472 C 271.500 616.577, 270.742 616.500, 252 616.500 C 233.167 616.500, 232.500 616.568, 232.500 618.500 C 232.500 620.177, 233.268 620.549, 237.263 620.805 C 240.935 621.041, 242.373 621.640, 243.539 623.420 C 244.931 625.543, 244.799 626.486, 241.909 635.115 C 235.854 653.189, 205.526 726, 204.052 726 C 202.944 726, 181.602 678.640, 181.760 676.534 C 181.842 675.447, 186.018 666.219, 191.040 656.029 C 205.945 625.784, 208.477 622.481, 217.776 621.151 C 221.597 620.604, 222.500 620.095, 222.500 618.488 C 222.500 616.570, 221.792 616.500, 202.500 616.500 C 183.167 616.500, 182.500 616.567, 182.500 618.500 C 182.500 620.126, 183.342 620.598, 187 621.026 C 189.475 621.315, 192.063 621.904, 192.750 622.335 C 194.751 623.589, 194.221 627.488, 190.853 636.282 C 187.201 645.817, 177.383 667, 176.616 667 C 175.302 667, 159.007 628.891, 159.003 625.809 C 158.999 622.541, 159.775 622.009, 165.800 621.148 C 169.598 620.604, 170.500 620.094, 170.500 618.488 C 170.500 616.562, 169.799 616.501, 148 616.535 C 126.422 616.569, 125.500 616.650, 125.500 618.508 C 125.500 620.023, 126.480 620.612, 129.998 621.213 C 132.473 621.635, 135.623 622.782, 136.998 623.763 C 139.683 625.675, 148.744 643.023, 160.834 669.396 C 167.696 684.364, 168.048 685.473, 166.865 688.396 C 166.173 690.103, 161.845 699.374, 157.245 708.998 C 147.425 729.545, 148.939 729.528, 139.547 709.198 C 113.925 653.736, 103 628.747, 103 625.602 C 103 623.384, 105.583 621.894, 110.692 621.163 C 114.563 620.609, 115.500 620.094, 115.500 618.519 C 115.500 616.636, 114.651 616.562, 92.623 616.532 C 75.705 616.508, 69.625 616.813, 69.284 617.702 M 613.448 616.886 C 613.201 617.132, 613 618.100, 613 619.037 C 613 620.320, 614.138 620.868, 617.614 621.260 C 622.897 621.855, 626.684 624.315, 629.365 628.894 C 631.954 633.314, 664.169 702.804, 675.989 729.462 C 681.345 741.542, 686.425 751.866, 687.279 752.404 C 689.762 753.970, 691.476 751.730, 695.461 741.712 C 701.226 727.221, 715.467 696.678, 716.641 696.286 C 717.226 696.091, 718.621 698.085, 719.740 700.716 C 732.839 731.512, 741.364 750.733, 742.391 751.787 C 743.081 752.494, 744.301 752.822, 745.102 752.514 C 745.904 752.207, 749.648 744.428, 753.424 735.228 C 757.199 726.027, 763.626 710.625, 767.706 701 C 792.973 641.391, 799.826 626.813, 804.002 623.791 C 805.377 622.795, 808.527 621.635, 811.002 621.213 C 814.553 620.606, 815.500 620.029, 815.500 618.472 C 815.500 616.577, 814.742 616.500, 796 616.500 C 777.167 616.500, 776.500 616.568, 776.500 618.500 C 776.500 620.143, 777.349 620.598, 781.262 621.047 C 783.880 621.348, 786.770 622.341, 787.683 623.254 C 789.136 624.707, 789.184 625.449, 788.072 629.207 C 784.510 641.251, 749.432 726, 748.010 726 C 747.394 726, 728.760 685.862, 726.128 678.865 C 725.261 676.560, 726.369 673.721, 734.949 656.254 C 749.993 625.625, 752.701 622.088, 761.914 621.028 C 765.630 620.600, 766.500 620.127, 766.500 618.532 C 766.500 616.641, 765.715 616.562, 746.500 616.532 C 727.197 616.501, 726.500 616.569, 726.500 618.488 C 726.500 620.094, 727.402 620.604, 731.200 621.148 C 737.226 622.010, 738 622.541, 738 625.816 C 738 629.992, 722.723 667, 720.999 667 C 720.629 667, 719.178 664.413, 717.772 661.250 C 716.367 658.087, 712.468 649.308, 709.108 641.741 C 703.123 628.259, 701.945 623.770, 704.050 622.469 C 704.628 622.112, 707.215 621.517, 709.800 621.148 C 713.593 620.605, 714.500 620.093, 714.500 618.493 C 714.500 616.575, 713.767 616.510, 692 616.510 C 670.233 616.510, 669.500 616.575, 669.500 618.493 C 669.500 620.099, 670.412 620.606, 674.313 621.164 C 682.019 622.266, 683.421 623.801, 690.864 639.283 C 701.710 661.840, 712 684.477, 712 685.776 C 712 687.300, 693.326 726, 692.591 726 C 691.511 726, 681.999 706.314, 664.808 668.500 C 652.799 642.085, 647 627.944, 647 625.075 C 647 622.625, 650.373 621, 655.458 621 C 658.717 621, 660.480 619.273, 659.157 617.375 C 658.514 616.451, 614.355 615.978, 613.448 616.886 M 937 668.626 C 934.525 669.939, 930.284 672.023, 927.575 673.257 C 924.865 674.491, 922.479 676.023, 922.271 676.662 C 922.063 677.301, 923.247 678.624, 924.904 679.602 C 926.560 680.581, 928.412 682.579, 929.018 684.044 C 930.701 688.105, 929.935 740.173, 928.162 742.307 C 927.426 743.193, 924.951 744.286, 922.662 744.736 C 919.542 745.351, 918.425 746.076, 918.199 747.635 C 917.903 749.685, 918.203 749.715, 939.028 749.733 C 956.363 749.748, 960.256 749.497, 960.703 748.333 C 961.507 746.235, 960.591 745.745, 954.251 744.885 C 944.849 743.609, 945 744.102, 945.002 714.639 C 945.003 692.704, 945.226 689.056, 946.752 686.014 C 949.882 679.773, 956.114 678.660, 963.323 683.055 C 967.786 685.776, 971.597 685.538, 974.548 682.354 C 977.839 678.803, 977.838 673.747, 974.545 670.455 C 970.295 666.205, 962.721 667.719, 952.077 674.948 C 948.795 677.177, 945.860 679, 945.555 679 C 945.250 679, 945 676.075, 945 672.500 C 945 664.969, 944.420 664.688, 937 668.626 M 306.604 669.529 C 295.301 672.387, 284.885 680.458, 279.888 690.229 C 276.677 696.507, 274.740 706.774, 275.309 714.500 C 276.306 728.067, 282.149 738.554, 292.399 745.179 C 300.216 750.232, 307.269 752.208, 317.350 752.168 C 334.854 752.099, 347.917 743.836, 355.362 728.123 C 358.288 721.948, 358.500 720.756, 358.500 710.500 C 358.500 697.816, 356.835 691.962, 351.048 684.306 C 341.199 671.274, 323.274 665.314, 306.604 669.529 M 405 669.538 C 384.960 675.143, 373 690.669, 373 711.076 C 373 725.092, 379.164 737.391, 389.857 744.708 C 398.106 750.354, 402.445 751.501, 415.500 751.492 C 424.614 751.485, 427.469 751.094, 432.155 749.206 C 447.792 742.906, 457 728.376, 457 710 C 457 691.651, 447.384 677.029, 431.380 671.041 C 423.805 668.207, 412.135 667.542, 405 669.538 M 850.500 669.411 C 828.620 674.842, 816.518 693.549, 819.121 717.916 C 822.692 751.336, 867.733 764.498, 891.324 739.017 C 899.488 730.199, 901.449 724.498, 901.477 709.500 C 901.498 698.548, 901.266 697.001, 898.820 691.782 C 890.558 674.154, 869.909 664.594, 850.500 669.411 M 1105.295 669.632 C 1099.158 671.517, 1092.297 677.046, 1090.370 681.657 C 1088.598 685.898, 1088.618 693.841, 1090.411 698.133 C 1092.507 703.149, 1098.039 708.333, 1107.395 714.051 C 1111.986 716.856, 1117.459 720.909, 1119.556 723.057 C 1122.942 726.525, 1123.418 727.635, 1123.804 732.963 C 1124.219 738.710, 1124.093 739.107, 1120.809 742.391 C 1114.044 749.156, 1103.613 747.912, 1096.165 739.451 C 1094.074 737.075, 1091.758 733.295, 1091.017 731.051 C 1089.241 725.669, 1087.425 724.147, 1085.307 726.264 C 1083.912 727.659, 1083.855 728.949, 1084.850 736.678 C 1086.117 746.528, 1086.373 746.873, 1094.728 749.999 C 1105.736 754.118, 1122.212 751.934, 1129.923 745.334 C 1135.022 740.969, 1137.005 736.477, 1136.978 729.349 C 1136.936 718.228, 1131.877 711.576, 1116.641 702.609 C 1111.472 699.567, 1106.081 695.697, 1104.661 694.009 C 1097.153 685.086, 1102.853 674, 1114.951 674 C 1121.665 674, 1127.642 678.281, 1131.444 685.812 C 1133.942 690.761, 1136.561 689.763, 1136.298 683.963 C 1135.922 675.696, 1134.122 671.244, 1130.636 669.968 C 1125.313 668.018, 1111.157 667.831, 1105.295 669.632 M 307.500 675.388 C 303.002 677.351, 297.524 684.008, 294.966 690.619 C 291.870 698.623, 291.558 716.733, 294.373 725 C 298.049 735.794, 302.202 741.181, 309.500 744.623 C 315.963 747.670, 321.335 747.639, 327.554 744.517 C 336.335 740.109, 341.002 730.236, 341.742 714.500 C 342.616 695.940, 336.239 680.739, 325.541 675.880 C 320.799 673.725, 311.867 673.482, 307.500 675.388 M 405.500 675.896 C 397.605 679.551, 393.005 687.033, 390.980 699.517 C 388.509 714.739, 392.715 731.815, 400.956 740.028 C 413.101 752.130, 430.633 747.839, 437.122 731.177 C 441.635 719.588, 440.611 698.998, 434.971 687.944 C 428.728 675.705, 416.611 670.752, 405.500 675.896 M 507.137 675.309 C 501.278 677.534, 495.943 682.903, 492.620 689.916 C 489.709 696.060, 489.501 697.236, 489.521 707.500 C 489.547 721.259, 491.767 727.672, 499.016 734.921 C 506.809 742.713, 519.307 745.341, 528.500 741.119 C 536.638 737.382, 536.500 737.917, 536.500 710.144 C 536.500 686.131, 536.442 685.419, 534.232 682.321 C 530.443 677.009, 525.684 674.726, 517.626 674.357 C 513.452 674.166, 509.107 674.560, 507.137 675.309 M 849.976 676.250 C 844.803 678.867, 839.596 685.292, 837.784 691.292 C 837.025 693.806, 836.517 700.936, 836.522 709 C 836.531 724.051, 838.128 730.085, 844.107 737.661 C 855.953 752.671, 876.064 748.580, 882.723 729.805 C 884.832 723.859, 885.551 707.478, 884.040 699.798 C 882.633 692.648, 878.976 684.780, 875.143 680.658 C 868.759 673.794, 858.413 671.982, 849.976 676.250" stroke="none" fill="#c9a96e" fill-rule="evenodd"/>
</svg>